<svg width="89" height="122" viewBox="0 0 89 122" fill="none" xmlns="http://www.w3.org/2000/svg">
<g id="Vector (Stroke)" opacity="0.3">
<path fill-rule="evenodd" clip-rule="evenodd" d="M5.22183 70.7021C8.60363 64.1375 16.7216 61.5292 23.3528 64.8784C29.9851 68.2276 32.6177 76.266 29.2349 82.8303C25.8521 89.3968 17.7341 92.0052 11.1027 88.656C4.47158 85.3048 1.83929 77.2684 5.22183 70.7021ZM27.1211 81.7613C29.9073 76.3545 27.7396 69.7327 22.275 66.9731C16.8106 64.2133 10.1216 66.3632 7.33577 71.7709C4.54949 77.1797 6.71711 83.8002 12.1812 86.5615C17.6455 89.321 24.3343 87.1709 27.1211 81.7613Z" fill="black"/>
<path fill-rule="evenodd" clip-rule="evenodd" d="M50.6245 48.6599C43.9933 45.309 35.8753 47.9152 32.4935 54.4815C29.1097 61.0482 31.743 69.0844 38.3756 72.4334C45.0058 75.7826 53.1228 73.1764 56.5066 66.6099C59.8903 60.0436 57.2558 52.0091 50.6245 48.6599ZM49.546 50.7544C44.0814 47.993 37.3932 50.1413 34.6076 55.55C31.8203 60.9591 33.9885 67.5792 39.4534 70.3386C44.9167 73.0984 51.605 70.9507 54.3928 65.5409C57.1797 60.1328 55.0104 53.5142 49.546 50.7544Z" fill="black"/>
<path fill-rule="evenodd" clip-rule="evenodd" d="M1.475 38.816C4.85778 32.2495 12.9748 29.6453 19.606 32.9945C26.2386 36.3418 28.8718 44.3782 25.4881 50.9445C22.1053 57.5112 13.9883 60.1174 7.3581 56.7682C0.72671 53.4192 -1.90851 45.3828 1.475 38.816ZM8.43621 54.6736C13.8997 57.4334 20.5874 55.2854 23.3741 49.8757C26.1613 44.467 23.993 37.8472 18.5287 35.0895C13.0635 32.3292 6.37535 34.476 3.58895 39.8848C0.802139 45.2935 2.97193 51.9141 8.43621 54.6736Z" fill="black"/>
<path fill-rule="evenodd" clip-rule="evenodd" d="M52.7595 34.7262C49.3777 41.2887 41.259 43.8967 34.6276 40.5478C27.9974 37.1988 25.3639 29.1624 28.7467 22.5956C32.1282 16.0313 40.2475 13.423 46.8788 16.7721C53.509 20.1213 56.1433 28.1578 52.7595 34.7262ZM50.6457 33.6572C53.4329 28.2463 51.2635 21.6263 45.8009 18.8668C40.3361 16.1068 33.6462 18.2571 30.8606 23.6644C28.0741 29.0737 30.243 35.6939 35.7056 38.4531C41.1705 41.2129 47.8601 39.0627 50.6457 33.6572Z" fill="black"/>
<path fill-rule="evenodd" clip-rule="evenodd" d="M60.8807 19.5767C59.823 21.6298 60.6464 24.1436 62.7194 25.1903C64.7906 26.2361 67.3254 25.4214 68.3825 23.3703L70.9061 18.4734C72.0975 16.1614 74.9548 15.2433 77.2893 16.4222L78.2363 16.9004C80.307 17.946 82.8413 17.1314 83.8978 15.0806C84.9551 13.0283 84.1322 10.5155 82.06 9.46908L64.2116 0.455762C62.1411 -0.589868 59.6069 0.224663 58.5503 2.2754C57.493 4.32764 58.316 6.84041 60.3882 7.88674L61.327 8.36079C63.6634 9.5406 64.5914 12.3739 63.3993 14.688L60.8807 19.5767ZM66.2687 22.3012L68.7923 17.4043C70.5795 13.9363 74.8653 12.5591 78.3671 14.3274L79.3141 14.8056C80.2174 15.2618 81.323 14.9064 81.7839 14.0118C82.2451 13.1165 81.8861 12.0203 80.9822 11.5638L63.1338 2.55049C62.2306 2.09438 61.1251 2.44969 60.6643 3.34424C60.2031 4.23945 60.5621 5.33555 61.4659 5.79197L62.4048 6.26602C65.9095 8.03574 67.3014 12.2857 65.5132 15.7568L62.9946 20.6455C62.533 21.5416 62.8924 22.6387 63.7971 23.0955C64.7011 23.5519 65.8074 23.1964 66.2687 22.3012Z" fill="black"/>
<path fill-rule="evenodd" clip-rule="evenodd" d="M77.8961 32.4376C71.2647 29.0906 63.1467 31.6967 59.764 38.2632C56.3821 44.8276 59.0145 52.8659 65.6461 56.2151C72.2772 59.5622 80.3952 56.956 83.778 50.3914C87.1608 43.8251 84.5273 35.7868 77.8961 32.4376ZM61.8779 39.3321C59.0924 44.7389 61.26 51.3606 66.7235 54.1202C72.1886 56.8786 78.8775 54.7299 81.6641 49.3226C84.4506 43.9138 82.2817 37.2917 76.8182 34.5322C71.353 31.7742 64.6644 33.923 61.8779 39.3321Z" fill="black"/>
<path fill-rule="evenodd" clip-rule="evenodd" d="M87.5248 82.2753C84.1411 88.844 76.0231 91.4502 69.3919 88.101C62.7603 84.7499 60.128 76.7134 63.5098 70.1491C66.8936 63.5823 75.0106 60.9762 81.6417 64.3253C88.2734 67.6745 90.9086 75.711 87.5248 82.2753ZM80.5638 66.42C75.0992 63.66 68.4113 65.8081 65.6236 71.2181C62.8384 76.6247 65.0056 83.2451 70.4703 86.0065C75.9347 88.7662 82.6232 86.6181 85.4109 81.2066C88.1974 75.8008 86.0286 69.18 80.5638 66.42Z" fill="black"/>
<path fill-rule="evenodd" clip-rule="evenodd" d="M54.3713 80.5438C47.7401 77.1946 39.6212 79.803 36.2384 86.3673C32.8568 92.9341 35.4901 100.972 42.1212 104.319C48.7517 107.668 56.8697 105.06 60.2534 98.4957C63.635 91.9311 61.0027 83.893 54.3713 80.5438ZM43.1993 102.225C48.6625 104.984 55.3514 102.835 58.1394 97.427C60.9248 92.0197 58.757 85.3979 53.2933 82.6385C47.8289 79.8786 41.139 82.0286 38.3522 87.4364C35.5669 92.8461 37.7369 99.4675 43.1993 102.225Z" fill="black"/>
<path fill-rule="evenodd" clip-rule="evenodd" d="M27.0998 96.7642C33.732 100.111 36.3655 108.15 32.9817 114.718C29.6002 121.281 21.4802 123.889 14.8488 120.54C8.21865 117.191 5.58514 109.154 8.96792 102.588C12.3505 96.0234 20.4694 93.415 27.0998 96.7642ZM26.0218 98.8589C20.5583 96.0991 13.8684 98.2489 11.0818 103.657C8.29548 109.066 10.4641 115.686 15.9268 118.445C21.3917 121.205 28.0825 119.055 30.8679 113.649C33.6554 108.238 31.4851 101.616 26.0218 98.8589Z" fill="black"/>
</g>
</svg>
