<svg width="26" height="26" viewBox="0 0 26 26" fill="none" xmlns="http://www.w3.org/2000/svg">
<path id="Combined shape 480" d="M18.6617 15.4617C18.8698 15.5619 19.0104 15.6295 19.0705 15.7292C19.1451 15.8531 19.1451 16.4481 18.8964 17.1424C18.6475 17.8364 17.4546 18.47 16.881 18.5552C16.3665 18.6318 15.7156 18.6637 15.0003 18.4375C14.5667 18.3006 14.0105 18.1177 13.2981 17.8115C10.4989 16.6086 8.60728 13.9086 8.24975 13.3983C8.2247 13.3626 8.20719 13.3376 8.19741 13.3246L8.195 13.3214C8.03695 13.1115 6.97821 11.7057 6.97821 10.2506C6.97821 8.88193 7.65374 8.16446 7.96472 7.83418C7.98605 7.81152 8.00566 7.79069 8.02322 7.7716C8.29692 7.47414 8.6204 7.39977 8.81947 7.39977C9.0185 7.39977 9.21777 7.40162 9.39173 7.41021C9.41319 7.41129 9.43553 7.41116 9.45862 7.41103C9.63262 7.41006 9.84955 7.40884 10.0635 7.9203C10.1457 8.1168 10.2659 8.40792 10.3926 8.71509C10.6498 9.33811 10.9341 10.0272 10.9841 10.1268C11.0588 10.2755 11.1086 10.449 11.009 10.6474C10.9941 10.6771 10.9803 10.7051 10.9671 10.7319C10.8924 10.8838 10.8374 10.9956 10.7104 11.1431C10.6607 11.2009 10.6092 11.2633 10.5578 11.3256C10.455 11.4503 10.3521 11.5749 10.2626 11.6637C10.1131 11.8119 9.95747 11.9727 10.1316 12.2701C10.3058 12.5677 10.9051 13.5407 11.7927 14.3287C12.7468 15.1757 13.5761 15.5337 13.9965 15.7152C14.0786 15.7506 14.1451 15.7793 14.1938 15.8036C14.4924 15.9524 14.6666 15.9275 14.8407 15.7292C15.0149 15.5309 15.5871 14.8615 15.7862 14.5641C15.9852 14.2667 16.1843 14.3162 16.4579 14.4153C16.7317 14.5146 18.1997 15.2334 18.4982 15.3821C18.5566 15.4112 18.6111 15.4374 18.6617 15.4617Z" stroke="black"/>
</svg>
