<svg width="98" height="69" viewBox="0 0 98 69" fill="none" xmlns="http://www.w3.org/2000/svg">
<path id="Vector" d="M25.4126 57.0381H60.5993C61.6054 57.0381 62.5704 56.6398 63.2819 55.931C63.9933 55.2221 64.393 54.2606 64.393 53.2581V4.77997C64.393 3.77746 63.9933 2.81601 63.2819 2.10713C62.5704 1.39825 61.6054 1 60.5993 1H4.79372C3.78756 1 2.82261 1.39825 2.11115 2.10713C1.39969 2.81601 1 3.77746 1 4.77997V53.2203C1 54.2228 1.39969 55.1843 2.11115 55.8932C2.82261 56.602 3.78756 57.0003 4.79372 57.0003H9.72555M72.4167 57.0381H64.5637V17.9154H83.1719C83.4459 17.9154 83.7166 17.9745 83.9655 18.0887C84.2143 18.2029 84.4354 18.3694 84.6135 18.5769L96.5637 32.8463C96.8465 33.1863 97.0009 33.6143 97 34.0559V57.0381H88.8625M26.2092 59.4951C26.2092 64.1922 22.4386 68 17.7872 68C13.1358 68 9.36515 64.1922 9.36515 59.4951C9.36515 54.7979 13.1358 50.9901 17.7872 50.9901C22.4386 50.9901 26.2092 54.7979 26.2092 59.4951ZM88.9004 59.4951C88.9004 64.1922 85.1297 68 80.4784 68C75.827 68 72.0563 64.1922 72.0563 59.4951C72.0563 54.7979 75.827 50.9901 80.4784 50.9901C85.1297 50.9901 88.9004 54.7979 88.9004 59.4951Z" stroke="black" stroke-width="2"/>
</svg>
