<svg width="90" height="92" viewBox="0 0 90 92" fill="none" xmlns="http://www.w3.org/2000/svg">
<g id="Group 12" opacity="0.3">
<path id="Vector" d="M18.7566 22.905C19.3516 22.3255 20.1586 22 21 22C21.8414 22 22.6484 22.3255 23.2434 22.905L39.1093 38.3597C39.6873 38.9426 40.0071 39.7234 39.9999 40.5338C39.9927 41.3443 39.6589 42.1195 39.0706 42.6926C38.4823 43.2657 37.6864 43.5908 36.8544 43.5978C36.0224 43.6049 35.2209 43.2933 34.6224 42.7303L24.1732 32.5518V86.9091C24.1732 87.7288 23.8389 88.515 23.2438 89.0947C22.6487 89.6743 21.8416 90 21 90C20.1584 90 19.3513 89.6743 18.7562 89.0947C18.1611 88.515 17.8268 87.7288 17.8268 86.9091V32.5518L7.3776 42.7303C6.77913 43.2933 5.97759 43.6049 5.14559 43.5978C4.3136 43.5908 3.51773 43.2657 2.9294 42.6926C2.34107 42.1195 2.00735 41.3443 2.00012 40.5338C1.99289 39.7234 2.31273 38.9426 2.89075 38.3597L18.7566 22.905Z" fill="black" stroke="white" stroke-width="3"/>
<path id="Vector_2" d="M66.7566 2.90499C67.3516 2.32552 68.1586 2 69 2C69.8414 2 70.6484 2.32552 71.2434 2.90499L87.1093 18.3597C87.6873 18.9426 88.0071 19.7234 87.9999 20.5338C87.9927 21.3443 87.6589 22.1195 87.0706 22.6926C86.4823 23.2657 85.6864 23.5908 84.8544 23.5978C84.0224 23.6049 83.2209 23.2933 82.6224 22.7303L72.1732 12.5518V66.9091C72.1732 67.7288 71.8389 68.515 71.2438 69.0947C70.6487 69.6743 69.8416 70 69 70C68.1584 70 67.3513 69.6743 66.7562 69.0947C66.1611 68.515 65.8268 67.7288 65.8268 66.9091V12.5518L55.3776 22.7303C54.7791 23.2933 53.9776 23.6049 53.1456 23.5978C52.3136 23.5908 51.5177 23.2657 50.9294 22.6926C50.3411 22.1195 50.0073 21.3443 50.0001 20.5338C49.9929 19.7234 50.3127 18.9426 50.8907 18.3597L66.7566 2.90499Z" fill="black" stroke="white" stroke-width="3"/>
</g>
</svg>
