<svg width="104" height="88" viewBox="0 0 104 88" fill="none" xmlns="http://www.w3.org/2000/svg">
<path id="Vector (Stroke)" opacity="0.3" fill-rule="evenodd" clip-rule="evenodd" d="M68.2225 48.4883L63.1978 48.5469C60.9129 48.5708 59.9265 48.8916 59.6025 49.0396L59.5931 49.0515C58.8965 49.9365 58.9588 50.6252 59.1267 51.1523C59.2241 51.4583 59.3708 51.7257 59.4991 51.9196C59.5612 52.0134 59.6132 52.0813 59.6429 52.1182C59.6489 52.1258 59.6539 52.1319 59.6577 52.1365C59.6592 52.1383 59.6605 52.1399 59.6617 52.1412L59.7317 52.2167L59.8087 52.3205L57.9053 53.7119C57.9053 53.7119 55.2106 50.808 57.7307 47.6065C57.7307 47.6065 58.1853 46.2527 63.1728 46.2003L66.2595 46.1644L68.582 46.6002L68.2225 48.4883ZM41.0421 4.65638C48.4476 5.52624 60.4024 12.1319 64.3324 23.8881C68.2624 35.6443 66.2595 46.1644 66.2595 46.1644C68.582 46.6002 68.5821 46.5995 68.5823 46.5988L68.5833 46.5932L68.5854 46.5823L68.5915 46.5491C68.5964 46.5219 68.603 46.4845 68.6111 46.4373C68.6273 46.343 68.6493 46.2094 68.6752 46.0386C68.727 45.6973 68.7942 45.2073 68.8612 44.5871C68.9951 43.3475 69.1284 41.5827 69.1333 39.4402C69.1432 35.1646 68.6422 29.3306 66.5757 23.1489C64.4245 16.7139 60.1005 11.7519 55.3945 8.30207C51.3621 5.34594 46.9298 3.41213 43.1115 2.6195C43.5295 2.5676 44.0108 2.51635 44.5488 2.47252C46.6963 2.29756 49.7255 2.24262 53.216 2.7272C60.177 3.69357 68.9445 6.79513 76.3117 15.3952L76.3195 15.4044L76.3262 15.4121L76.3274 15.4134L76.3293 15.4156L76.3476 15.4369C76.3653 15.4574 76.3937 15.4906 76.4322 15.5362C76.5091 15.6274 76.6266 15.7682 76.7798 15.9568C77.0864 16.334 77.5358 16.9019 78.0907 17.6456C79.2011 19.1339 80.7306 21.322 82.3821 24.0919C85.6916 29.6422 89.4553 37.4691 91.3522 46.6397L91.74 48.5143L99.8543 48.5143L99.8971 48.5098C99.9007 48.51 99.9048 48.5103 99.9092 48.5106C99.9693 48.5153 100.091 48.5314 100.248 48.5852C100.527 48.6808 101.046 48.9361 101.572 49.7343L101.573 49.7358C101.587 49.772 101.619 49.8662 101.631 50.0195C101.655 50.3196 101.627 51.1285 100.716 52.4575C99.5484 54.1614 96.0661 59.2391 92.8754 63.8914L86.7862 72.7698C86.7861 72.77 86.7857 72.7706 88.7394 74.0914L86.7862 72.7698L86.7301 72.8516L86.6891 72.9237C86.6886 72.9245 86.6881 72.9253 86.6876 72.9262C86.6808 72.9374 86.6652 72.9626 86.6408 72.9998C86.5919 73.0745 86.5089 73.1958 86.3918 73.3482C86.1554 73.6559 85.7927 74.0741 85.3064 74.491C84.3399 75.3193 82.9499 76.0944 81.0683 76.0941C78.9977 76.0901 77.6843 75.4688 76.8692 74.8815C76.1283 74.3477 75.7418 73.8139 75.4886 73.4643C75.4532 73.4153 75.4203 73.37 75.3895 73.3288C75.1605 73.0206 71.2825 67.7917 67.4517 62.6263L59.8115 52.3242L59.8087 52.3205C59.8086 52.3203 59.8087 52.3205 57.9053 53.7119C57.9053 53.7119 73.0918 74.1895 73.4904 74.7258C73.512 74.7547 73.5383 74.7913 73.5693 74.8346C74.115 75.5945 76.1519 78.4314 81.0638 78.4407C86.2621 78.444 88.7394 74.0914 88.7394 74.0914C88.7394 74.0914 100.335 57.1848 102.671 53.7773C105.01 50.3632 103.55 48.4502 103.55 48.4502C101.897 45.9387 99.7289 46.1676 99.7289 46.1676L93.6676 46.1676C89.7375 27.1681 78.1122 13.8749 78.1122 13.8749C62.4613 -4.39539 40.7127 0.6341 40.7127 0.6341C40.7127 0.6341 39.7376 0.679883 39.7376 2.53079C39.7376 4.63349 41.0421 4.65638 41.0421 4.65638ZM63.298 87.365C63.298 87.365 64.2665 87.3159 64.2665 85.4748C64.2665 83.3623 62.962 83.3492 62.962 83.3492C55.5598 82.4728 43.6083 75.8737 39.6717 64.1142C35.745 52.3515 37.7479 41.838 37.7479 41.838L40.8346 41.802C45.8352 41.7529 46.2767 40.4024 46.2767 40.4024C48.8001 37.2009 46.1021 34.2905 46.1021 34.2905C46.1021 34.2905 30.9124 13.8161 30.5138 13.2798C30.4941 13.2531 30.4705 13.2201 30.443 13.1814C29.9118 12.4362 27.8786 9.58385 22.937 9.57142C17.7486 9.55833 15.2647 13.9109 15.2647 13.9109C15.2647 13.9109 3.67233 30.811 1.33342 34.2218C-1.00879 37.6325 0.447272 39.5521 0.447272 39.5521C2.10756 42.0603 4.2587 41.8347 4.2587 41.8347L10.33 41.8347C14.2534 60.8375 25.8919 74.1274 25.8919 74.1274C41.5462 92.3977 63.298 87.365 63.298 87.365ZM2.42744 38.2707C2.41299 38.2343 2.3807 38.1387 2.36849 37.9834C2.34472 37.681 2.37504 36.8708 3.28636 35.5437L3.28722 35.5424C4.45658 33.8372 7.93931 28.7596 11.1298 24.1082L17.2163 15.2349L17.2178 15.2326C17.2179 15.2324 17.2184 15.2318 15.2647 13.9109L17.2178 15.2326L17.2732 15.1518L17.3114 15.0847C17.3118 15.084 17.3131 15.0817 17.3148 15.079C17.315 15.0786 17.3145 15.0794 17.3148 15.079C17.3216 15.0677 17.3378 15.0418 17.3623 15.0045C17.4113 14.9298 17.4946 14.8084 17.6119 14.6559C17.8488 14.3481 18.212 13.93 18.6985 13.5137C19.666 12.6856 21.0549 11.9133 22.931 11.9181C25.0084 11.9233 26.3249 12.5441 27.1398 13.1294C27.8892 13.6676 28.279 14.2107 28.5218 14.5488C28.5527 14.5919 28.5812 14.6316 28.6078 14.6676L28.6119 14.6731C28.8104 14.9402 32.7063 20.1913 36.5543 25.3779L44.1962 35.6784L44.1983 35.6812C44.1984 35.6814 44.199 35.6822 46.1021 34.2905L44.1983 35.6812L44.2755 35.7853L44.345 35.8603C44.3491 35.8652 44.3556 35.873 44.3641 35.8836C44.3939 35.9208 44.4461 35.989 44.5083 36.0831C44.637 36.2777 44.7842 36.5461 44.8819 36.8531C45.0504 37.3824 45.1122 38.072 44.4152 38.9562L44.4047 38.9695C44.0771 39.1172 43.0896 39.4331 40.8112 39.4554L35.7851 39.514L35.4254 41.4018L37.7479 41.838C35.4254 41.4018 35.4253 41.4025 35.4252 41.4032L35.4241 41.4088L35.4221 41.4197L35.416 41.453C35.4137 41.4657 35.411 41.4807 35.4079 41.4979C35.4045 41.5174 35.4006 41.5396 35.3963 41.5647C35.3801 41.6589 35.3581 41.7925 35.3322 41.9632C35.2805 42.3044 35.2132 42.7941 35.1462 43.4141C35.0122 44.6532 34.8788 46.4174 34.8737 48.5594C34.8634 52.8343 35.3635 58.6679 37.4281 64.8525L37.4287 64.8543C39.5833 71.2905 43.9079 76.2514 48.6133 79.7007C52.6414 82.6535 57.0669 84.5859 60.8801 85.3822C60.4663 85.4334 59.9912 85.4838 59.4611 85.5271C57.3132 85.7023 54.2835 85.7576 50.7923 85.2734C43.8301 84.3078 35.061 81.207 27.6923 72.6069L27.684 72.5972L27.6768 72.589L27.6757 72.5877L27.6738 72.5855L27.6554 72.5642C27.6377 72.5437 27.6093 72.5105 27.5708 72.465C27.4938 72.3738 27.3762 72.233 27.2228 72.0445C26.9159 71.6674 26.4661 71.0997 25.9107 70.3561C24.7993 68.8682 23.2684 66.6805 21.6158 63.911C18.3041 58.3613 14.5391 50.535 12.6455 41.3635L12.2582 39.488L4.13418 39.488L4.09418 39.4922C4.09128 39.492 4.08811 39.4918 4.0847 39.4915C4.02675 39.4869 3.90713 39.471 3.75138 39.4173C3.47552 39.3222 2.95669 39.067 2.42744 38.2707Z" fill="black"/>
</svg>
