<svg width="110" height="110" viewBox="0 0 110 110" fill="none" xmlns="http://www.w3.org/2000/svg">
<g id="Group 10" opacity="0.3">
<path id="&#226;&#130;&#189;" d="M59.5837 58.6968H47.278V65.9603H64.6582V68.0355H47.278V77.6986H44.9945V68.0355H39.2856V65.9603H44.9945V58.6968H39.2856V56.4918H44.9945V32.3018H59.5837C63.1358 32.3018 66.1594 33.5988 68.6544 36.1929C71.1916 38.7438 72.4602 41.8351 72.4602 45.4668C72.4602 49.0986 71.1916 52.2115 68.6544 54.8056C66.1594 57.3997 63.1358 58.6968 59.5837 58.6968ZM47.278 34.5067V56.4918H59.5837C62.4592 56.4918 64.9331 55.4109 67.0051 53.2492C69.0772 51.0874 70.1133 48.4933 70.1133 45.4668C70.1133 42.4404 69.0772 39.8679 67.0051 37.7494C64.9331 35.5876 62.4592 34.5067 59.5837 34.5067H47.278Z" fill="black"/>
<circle id="Ellipse 6" cx="55" cy="55" r="53.5" stroke="black" stroke-width="3"/>
</g>
</svg>
