<svg xmlns="http://www.w3.org/2000/svg" width="209" height="19" viewBox="0 0 209 19" fill="none">
  <path d="M6.786 0.364C8.502 0.364 9.958 0.953333 11.154 2.132C12.35 3.31067 12.948 4.732 12.948 6.396C12.948 8.07733 12.35 9.50733 11.154 10.686C9.958 11.8647 8.502 12.454 6.786 12.454H3.588V18.564H0V0.364H6.786ZM6.786 9.1C7.514 9.1 8.12067 8.84 8.606 8.32C9.10867 7.8 9.36 7.15867 9.36 6.396C9.36 5.63333 9.10867 5.00067 8.606 4.498C8.12067 3.978 7.514 3.718 6.786 3.718H3.588V9.1H6.786Z" fill="white"/>
  <path d="M18.8732 15.132H25.6332V18.564H15.2852V0.364H18.8732V15.132Z" fill="white"/>
  <path d="M38.935 18.564L37.895 15.288H30.927L29.887 18.564H26.013L32.201 0.364H36.647L42.835 18.564H38.935ZM31.993 11.934H36.829L34.411 4.342L31.993 11.934Z" fill="white"/>
  <path d="M54.289 0.364V3.796H49.895V18.564H46.307V3.796H41.939V0.364H54.289Z" fill="white"/>
  <path d="M66.951 3.796H59.879V8.424H66.769V11.856H59.879V18.564H56.291V0.364H66.951V3.796Z" fill="white"/>
  <path d="M84.6812 16.198C82.8439 18.018 80.6079 18.928 77.9732 18.928C75.3385 18.928 73.1025 18.018 71.2652 16.198C69.4452 14.3607 68.5352 12.116 68.5352 9.464C68.5352 6.812 69.4452 4.576 71.2652 2.756C73.1025 0.918667 75.3385 0 77.9732 0C80.6079 0 82.8439 0.918667 84.6812 2.756C86.5185 4.576 87.4372 6.812 87.4372 9.464C87.4372 12.116 86.5185 14.3607 84.6812 16.198ZM73.7872 13.754C74.9138 14.8633 76.3092 15.418 77.9732 15.418C79.6372 15.418 81.0325 14.8633 82.1592 13.754C83.2859 12.6273 83.8492 11.1973 83.8492 9.464C83.8492 7.73067 83.2859 6.30067 82.1592 5.174C81.0325 4.04733 79.6372 3.484 77.9732 3.484C76.3092 3.484 74.9138 4.04733 73.7872 5.174C72.6605 6.30067 72.0972 7.73067 72.0972 9.464C72.0972 11.1973 72.6605 12.6273 73.7872 13.754Z" fill="white"/>
  <path d="M100.905 18.564L95.757 12.246H93.547V18.564H89.959V0.364H96.849C98.5303 0.364 99.9603 0.953333 101.139 2.132C102.318 3.31067 102.907 4.732 102.907 6.396C102.907 7.50533 102.595 8.53667 101.971 9.49C101.347 10.4433 100.524 11.1627 99.501 11.648L105.117 18.564H100.905ZM93.547 3.718V9.1H96.849C97.525 9.1 98.1057 8.84 98.591 8.32C99.0763 7.78267 99.319 7.14133 99.319 6.396C99.319 5.65067 99.0763 5.018 98.591 4.498C98.1057 3.978 97.525 3.718 96.849 3.718H93.547Z" fill="white"/>
  <path d="M124.146 0.364V18.564H120.584V6.344L116.554 15.652H113.954L109.924 6.344V18.564H106.336V0.364H110.418L115.254 11.492L120.064 0.364H124.146Z" fill="white"/>
  <path d="M138.847 18.564L137.807 15.288H130.839L129.799 18.564H125.925L132.113 0.364H136.559L142.747 18.564H138.847ZM131.905 11.934H136.741L134.323 4.342L131.905 11.934Z" fill="white"/>
  <path d="M144.393 18.564V14.404H148.553V18.564H144.393Z" fill="white"/>
  <path d="M167.071 0.364H171.439L166.421 18.564H161.949L159.739 10.556L157.529 18.564H153.057L148.039 0.364H152.407L155.553 13.104L157.971 4.108L156.931 0.364H160.779L163.925 13.104L167.071 0.364Z" fill="white"/>
  <path d="M173.009 0.364H177.169V18.564H173.009V0.364Z" fill="white"/>
  <path d="M189.916 0.364H194.076V18.564H190.956L184.456 8.424V18.564H180.296V0.364H183.416L189.916 10.504V0.364Z" fill="white"/>
  <path d="M201.366 14.56H208.126V18.564H197.206V0.364H207.996V4.368H201.366V7.41H207.346V11.31H201.366V14.56Z" fill="white"/>
</svg>