<svg width="27" height="23" viewBox="0 0 27 23" fill="none" xmlns="http://www.w3.org/2000/svg">
<path id="telegram" fill-rule="evenodd" clip-rule="evenodd" d="M1.49436 11.0275C4.02903 9.62672 6.85842 8.45763 9.50207 7.28254C14.0501 5.35788 18.6163 3.46656 23.2285 1.70575C24.1258 1.40574 25.7383 1.11242 25.8964 2.44665C25.8098 4.33525 25.4537 6.21281 25.2094 8.09032C24.5895 12.2192 23.8727 16.334 23.174 20.4493C22.9331 21.8199 21.2216 22.5297 20.1265 21.6524C17.4946 19.8688 14.8425 18.1026 12.2442 16.2776C11.3929 15.4098 12.1824 14.1638 12.9424 13.5442C15.1101 11.4007 17.4089 9.57992 19.4633 7.32585C20.0175 5.98311 18.3801 7.11469 17.84 7.46148C14.8724 9.51322 11.9775 11.6902 8.8487 13.4934C7.25051 14.3761 5.38781 13.6218 3.79035 13.1293C2.35806 12.5343 0.259186 11.9348 1.49417 11.0277L1.49436 11.0275Z" stroke="black"/>
</svg>
