<svg width="61" height="88" viewBox="0 0 61 88" fill="none" xmlns="http://www.w3.org/2000/svg">
<g id="Group 131">
<path id="Vector (Stroke)" d="M32.974 82.4686C32.974 82.4689 32.974 82.469 32.0051 82.469M32.974 82.4686L32.0051 82.469M32.974 82.4686C32.974 85.2274 31.0646 87.4447 28.7303 87.4447H5.24378C2.90925 87.4447 1 85.2274 1 82.4686M32.974 82.4686V38.1686C32.974 32.2911 30.0797 28.2856 27.3915 25.366C26.7253 24.6423 26.0608 23.9741 25.4514 23.3614L25.429 23.3388C24.8068 22.7131 24.2509 22.1532 23.7788 21.6259C23.3038 21.0954 22.9529 20.6403 22.7242 20.2373C22.4957 19.8347 22.4356 19.5648 22.4356 19.386V6.94903C22.8567 6.54027 23.1275 5.92183 23.1275 5.22204V3.23848C23.1275 1.98896 22.263 1 21.2224 1H12.7111C11.6686 1 10.8072 1.99112 10.8072 3.23848V5.22204C10.8072 5.94247 11.094 6.57766 11.5373 6.98591V19.386C11.5373 19.5649 11.4771 19.8347 11.2487 20.2373C11.02 20.6403 10.6691 21.0954 10.1942 21.626C9.72212 22.1533 9.16634 22.7131 8.54417 23.3389L8.52189 23.3613C7.91257 23.9741 7.24811 24.6423 6.58187 25.366C3.89393 28.2857 1 32.2911 1 38.1686V82.4686M32.0051 82.469V38.1686C32.0051 31.4552 27.9037 27.3308 24.8182 24.228C22.9577 22.3571 21.4666 20.8577 21.4666 19.386V7.84267H12.5062V19.386C12.5062 20.8577 11.0153 22.3571 9.15504 24.228C6.06986 27.3308 1.96891 31.4552 1.96891 38.1686V82.469M32.0051 82.469C32.0051 84.5846 30.5388 86.2997 28.7303 86.2997H5.24378C3.43505 86.2997 1.96891 84.5846 1.96891 82.469M1.96891 82.469C1 82.469 1 82.4689 1 82.4686M1.96891 82.469L1 82.4686M24.9712 74.4921H9.00278V42.7041H24.9712V74.4921ZM12.7111 6.31703H21.2224C21.739 6.31703 22.1585 5.82756 22.1585 5.22204V3.23848C22.1585 2.63428 21.739 2.14496 21.2224 2.14496H12.7111C12.1944 2.14496 11.7761 2.63444 11.7761 3.23848V5.22204C11.7761 5.82756 12.1944 6.31703 12.7111 6.31703ZM25.9401 75.637H8.03387V41.5592H25.9401V75.637Z" stroke="black"/>
<path id="Vector (Stroke)_2" d="M60.0288 84.118C60.0288 84.1182 60.0288 84.1183 59.0198 84.1183M60.0288 84.118L59.0198 84.1183M60.0288 84.118C60.0288 85.9676 58.7038 87.4442 57.0946 87.4442H43.2869C41.6775 87.4442 40.3525 85.9676 40.3525 84.118M60.0288 84.118V55.1947C60.0288 51.641 58.2088 49.2419 56.6043 47.5601C56.2063 47.143 55.8102 46.7586 55.4533 46.4122L55.4379 46.3973C55.0699 46.0402 54.7525 45.7314 54.4849 45.4429C54.2142 45.1512 54.0355 44.923 53.9281 44.7404C53.8511 44.6094 53.8358 44.544 53.8333 44.5307V33.9079C54.0851 33.5946 54.2401 33.1771 54.2401 32.7129V31.5875C54.2401 30.5933 53.5286 29.8145 52.6807 29.8145H47.6769C46.8271 29.8145 46.1182 30.5954 46.1182 31.5875V32.7129C46.1182 33.1904 46.2823 33.6192 46.5474 33.9356V44.5308C46.5449 44.544 46.5296 44.6094 46.4526 44.7404C46.3452 44.923 46.1665 45.1512 45.8959 45.443C45.6284 45.7314 45.3109 46.0402 44.943 46.3973L44.9276 46.4122C44.5707 46.7586 44.1747 47.143 43.7768 47.5601C42.1724 49.2419 40.3525 51.641 40.3525 55.1947V84.118M59.0198 84.1183V55.1947C59.0198 51.3858 56.6086 49.0458 54.7946 47.2854C53.7009 46.2239 52.8243 45.3732 52.8243 44.5383V34.1997H47.5564V44.5383C47.5564 45.3732 46.6799 46.2239 45.5863 47.2854C43.7725 49.0458 41.3616 51.3858 41.3616 55.1947V84.1183M59.0198 84.1183C59.0198 85.3185 58.1578 86.2917 57.0946 86.2917H43.2869C42.2235 86.2917 41.3616 85.3185 41.3616 84.1183M41.3616 84.1183C40.3525 84.1183 40.3525 84.1182 40.3525 84.118M41.3616 84.1183L40.3525 84.118M53.1447 33.0471C53.1994 32.9506 53.231 32.836 53.231 32.7129V31.5875C53.231 31.2447 52.9844 30.967 52.6807 30.967H47.6769C47.3731 30.967 47.1272 31.2448 47.1272 31.5875V32.7129C47.1272 32.836 47.1588 32.9506 47.2133 33.0471C47.2902 33.1831 47.4127 33.2829 47.5564 33.3192C47.5952 33.329 47.6355 33.3341 47.6769 33.3341H52.6807C52.7304 33.3341 52.7785 33.3267 52.8243 33.3128C52.9581 33.272 53.0718 33.1758 53.1447 33.0471ZM54.4452 79.0895H45.9362V58.271H54.4452V79.0895ZM55.4542 80.2421H44.9272V57.1184H55.4542V80.2421Z" stroke="black"/>
</g>
</svg>
