<svg width="69" height="89" viewBox="0 0 69 89" fill="none" xmlns="http://www.w3.org/2000/svg">
<path id="Vector" d="M48.5508 11.0385H59.6646M13.8202 76.9577C13.8202 82.3115 10.7639 86.6615 6.59618 88H20.7663M13.8202 76.9577C13.8202 82.3115 16.8765 86.6615 21.0441 88M13.8202 76.9577V66.25M59.6646 25.7615V1H48.5508V25.7615C43.5496 28.4385 40.2155 34.1269 40.2155 41.1538V88H68V41.1538C68 34.4615 64.6659 28.4385 59.6646 25.7615ZM40.2155 47.8462H59.6646V71.2692H40.2155V47.8462ZM5.48479 34.4615H21.8777L25.2118 44.8346C27.1567 50.8577 25.7675 57.8846 21.8777 62.2346C17.1543 67.5885 9.93032 67.5885 5.20695 62.2346C1.31711 57.8846 -0.0721134 50.8577 1.8728 44.8346L5.48479 34.4615Z" stroke="black" stroke-width="2" stroke-miterlimit="10" stroke-linecap="round" stroke-linejoin="round"/>
</svg>
