<svg width="155" height="126" viewBox="0 0 155 126" fill="none" xmlns="http://www.w3.org/2000/svg">
<path d="M110.133 4.19883L109.859 4.1733C109.573 4.14653 109.19 4.11088 108.807 4.07532C108.647 4.06049 108.487 4.04568 108.333 4.03154C108.119 4.01177 107.917 3.99332 107.748 3.97796C107.603 3.96477 107.481 3.95391 107.396 3.94645C107.353 3.9427 107.319 3.93989 107.297 3.93808L107.296 3.93804L107.286 3.93895L107.242 3.93406C105.907 3.78424 104.587 3.2956 103.318 2.80095C103.198 2.7544 103.079 2.70781 102.961 2.66139C101.801 2.20707 100.682 1.76891 99.5628 1.54323C93.7788 0.384041 88.279 2.23479 83.1599 5.28608C78.769 7.90336 74.7048 11.3742 71.0174 14.5232C70.4009 15.0497 69.795 15.5671 69.1998 16.0701C61.0139 23.0102 53.1467 30.3362 45.7702 38.1334L45.77 38.1336C38.4656 45.8459 31.4943 53.8782 24.648 62.0108C20.7215 66.6805 16.873 71.4089 13.1207 76.2298L13.1189 76.2322C9.7882 80.4517 6.68019 84.8497 4.24544 89.6286L4.24504 89.6294C2.31241 93.4038 0.391756 97.2857 0.4768 101.512C0.525625 103.919 1.29637 106.601 2.74992 108.398C3.47237 109.292 4.35335 109.955 5.38853 110.275C6.42031 110.593 7.64186 110.581 9.0697 110.064C11.0751 109.337 12.3896 107.721 13.3442 105.748C14.1946 103.99 14.7351 102.001 15.2276 100.189C15.2899 99.9598 15.3516 99.7332 15.4129 99.5102C15.5292 99.0875 15.6447 98.6636 15.7604 98.2389C16.6917 94.8211 17.636 91.3552 19.1219 88.0809L19.1228 88.0788C21.3126 83.3228 23.925 78.5939 27.4693 74.6312L27.4703 74.6301C32.7514 68.7664 39.1198 64.1202 45.4362 59.5121C47.5174 57.9937 49.5929 56.4795 51.6221 54.9272C53.3665 53.5882 55.0837 52.0651 56.8244 50.4884C57.135 50.2071 57.4464 49.924 57.7588 49.64C59.1934 48.3358 60.6491 47.0124 62.1427 45.7543C65.7792 42.6908 69.6882 39.9707 74.2111 38.7706L74.2795 38.7525L74.3502 38.7569L75.7093 38.8409L76.0942 38.8647L76.1185 39.2496L77.3162 58.267L78.1028 58.1871L78.5665 58.1399L78.5837 58.6057C78.587 58.6953 78.5898 58.7751 78.5924 58.8466C78.5948 58.9154 78.597 58.9766 78.599 59.0315C78.6011 59.086 78.6029 59.13 78.6046 59.1634C78.6059 59.1884 78.6069 59.2024 78.6073 59.2087C78.6076 59.2119 78.6077 59.2132 78.6076 59.2129L78.608 59.2157C78.7298 60.3117 79.1446 61.3456 79.6947 62.3489L79.6956 62.3504C79.9331 62.7879 80.2301 63.204 80.5465 63.6472C80.5695 63.6795 80.5927 63.712 80.6159 63.7446C80.9502 64.2135 81.3008 64.714 81.5695 65.259L82.0876 66.2432L82.2916 66.6308L81.9035 66.8339C81.3237 67.1375 80.7278 67.4235 80.1373 67.707L80.0989 67.7254C79.4935 68.0161 78.8938 68.3046 78.308 68.6128C77.1363 69.2294 76.042 69.9142 75.1223 70.8148L75.1183 70.8187C74.215 71.6809 73.9644 72.5379 74.0773 73.3549C74.1944 74.2026 74.7129 75.0784 75.4941 75.9206C77.0445 77.5923 79.4746 78.9662 81.043 79.527L81.6916 79.6354L82.9719 79.8492L81.823 80.4533C81.2298 80.7651 80.6196 81.0577 80.0152 81.3472L79.9966 81.3561C79.396 81.6438 78.8012 81.9287 78.2201 82.2324C77.0458 82.8463 75.9507 83.5257 75.0342 84.419L75.0311 84.422C74.1274 85.2856 73.8769 86.1437 73.9902 86.9617C74.1078 87.8104 74.6271 88.6869 75.4093 89.5298C76.9632 91.2042 79.3993 92.5797 80.9705 93.14L81.6185 93.2625L82.8626 93.4977L81.7383 94.08C81.1646 94.3771 80.5769 94.6578 79.9947 94.9359L79.9281 94.9677C79.3218 95.2573 78.7217 95.5449 78.1357 95.8517C76.9636 96.4654 75.8684 97.1457 74.9424 98.0362L74.9419 98.0367C74.0383 98.9027 73.7879 99.7624 73.9015 100.581C74.0193 101.431 74.5389 102.307 75.321 103.15C76.8745 104.823 79.309 106.196 80.8791 106.755L81.5204 106.87L82.7747 107.096L81.6455 107.687C81.0719 107.988 80.4824 108.272 79.8979 108.554L79.8416 108.581C79.2363 108.873 78.6363 109.163 78.0502 109.472C76.8777 110.091 75.7817 110.777 74.8595 111.672L74.8561 111.675C74.1208 112.374 73.8333 113.064 73.8074 113.716C73.7809 114.381 74.0238 115.068 74.4644 115.752C75.3511 117.128 76.9554 118.362 78.2527 119.143C78.5952 119.344 78.9547 119.508 79.3389 119.68L79.3803 119.699C79.7467 119.863 80.136 120.038 80.5156 120.255L80.5177 120.256C80.5786 120.291 80.7224 120.398 80.8626 120.503C81.0189 120.619 81.2144 120.767 81.4049 120.912C81.5464 121.02 81.686 121.126 81.8052 121.217C81.8465 121.249 81.8853 121.278 81.9209 121.306C81.9905 121.359 82.0476 121.402 82.0873 121.432L82.1314 121.465C82.1364 121.469 82.1382 121.47 82.1379 121.47L82.1357 121.469L82.1291 121.464C82.128 121.463 82.1239 121.461 82.1177 121.457C82.1143 121.455 82.1103 121.452 82.1058 121.45C82.1015 121.447 82.0838 121.437 82.0597 121.426C82.0455 121.421 82.0056 121.407 81.9797 121.401C81.9264 121.393 81.7492 121.414 81.6374 121.47L82.1506 122.177C81.8054 122.437 81.465 122.703 81.1215 122.972L81.0617 123.019C80.7012 123.3 80.3372 123.584 79.967 123.861C79.8306 123.971 79.6786 124.076 79.5379 124.174L79.5251 124.183C79.3817 124.282 79.2469 124.375 79.1207 124.474C78.8554 124.681 78.6871 124.869 78.6169 125.07L78.6146 125.076L78.6145 125.076C78.6129 125.081 78.6114 125.085 78.61 125.089C78.6317 125.09 78.658 125.091 78.6896 125.09C78.9384 125.084 79.2263 125.014 79.4683 124.956C79.5478 124.936 79.6224 124.918 79.689 124.904C80.6017 124.696 81.7495 124.299 82.6821 123.698C83.6226 123.092 84.268 122.331 84.3484 121.411C84.4531 120.207 83.9409 119.386 83.1331 118.693C82.7221 118.34 82.2401 118.027 81.728 117.72C81.5411 117.608 81.3459 117.495 81.1492 117.38C80.8229 117.19 80.4926 116.998 80.1898 116.807L80.1897 116.807C79.5832 116.424 78.9928 116.021 78.419 115.582L78.4163 115.58C78.3247 115.509 78.2144 115.43 78.0865 115.339L78.0472 115.311C77.9061 115.21 77.7492 115.097 77.5962 114.977C77.304 114.748 76.9696 114.452 76.7883 114.109C76.7881 114.108 76.7878 114.108 76.7875 114.107L76.4853 113.542L76.2798 113.158L76.6635 112.951C78.0638 112.197 79.4887 111.523 80.9107 110.849C81.2088 110.708 81.5067 110.567 81.8043 110.425L81.8044 110.425C82.6076 110.043 83.4891 109.547 84.117 108.91C84.7336 108.284 85.0748 107.557 84.9036 106.668C84.6833 105.543 83.8886 104.786 82.8228 104.163C82.2912 103.852 81.71 103.584 81.1241 103.323C81.0399 103.286 80.9554 103.249 80.8708 103.211C80.3759 102.992 79.8802 102.773 79.4402 102.539C78.4801 102.031 77.6746 101.336 76.9513 100.601L76.9052 100.554L76.875 100.496L76.5759 99.9198L76.3778 99.5385L76.7557 99.334C78.2485 98.5263 79.7656 97.8109 81.2796 97.097C81.4807 97.0022 81.6818 96.9074 81.8828 96.8124C82.6841 96.419 83.5661 95.9205 84.1977 95.2839C84.8188 94.6576 85.1629 93.9374 84.998 93.059C84.7709 91.9284 83.9745 91.1708 82.9102 90.5487C82.3787 90.238 81.7976 89.9712 81.2113 89.7115C81.1246 89.673 81.0375 89.6346 80.9503 89.5963C80.4572 89.3789 79.9631 89.1612 79.5234 88.9293L79.5187 88.9268C78.5648 88.4084 77.7511 87.7168 77.0285 86.969L76.9868 86.9258L76.9582 86.873L76.6584 86.3181L76.4513 85.9347L76.8341 85.7265C78.2383 84.9627 79.6755 84.2803 81.0991 83.6042C81.388 83.4671 81.6763 83.3301 81.9637 83.1929C82.7682 82.7999 83.6527 82.3023 84.2849 81.667C84.9065 81.0422 85.2488 80.3244 85.0807 79.4488C84.9017 78.5318 84.3311 77.8481 83.5548 77.2892C82.7707 76.7247 81.818 76.3166 80.9279 75.9371L80.9205 75.9339L80.9205 75.9339C79.4707 75.2836 78.2366 74.5168 77.112 73.3595L76.6904 72.9256L77.2348 72.6617C77.7844 72.3952 78.3625 72.1418 78.94 71.8886C78.9896 71.8668 79.0392 71.8451 79.0888 71.8233C79.7189 71.5468 80.3478 71.2684 80.9572 70.9645C82.1783 70.3556 83.2899 69.6597 84.1268 68.7217L84.1277 68.7207C84.6761 68.1101 84.9436 67.5093 85.0306 66.9255C85.1182 66.3373 85.027 65.735 84.8083 65.1191C84.3845 63.9259 83.516 62.7624 82.6918 61.6584C82.6517 61.6048 82.6118 61.5513 82.572 61.4979L82.5717 61.4976C81.8402 60.5144 81.5896 59.4035 81.5252 58.3245L81.4998 57.8999L81.9236 57.8631L83.0922 57.7617L82.4735 37.1114L82.4671 36.899L82.6303 36.7628C82.7695 36.6466 82.9072 36.5325 83.043 36.4199C84.8244 34.944 86.2914 33.7285 86.7027 31.4911L86.703 31.4895C86.8394 30.7629 86.8967 30.0186 86.9372 29.2563C86.9478 29.0575 86.9572 28.8565 86.9667 28.6542C86.9932 28.0899 87.0202 27.5158 87.0732 26.9533C87.2185 25.4121 87.5655 23.8615 88.695 22.4709L88.6961 22.4695C90.2888 20.5246 92.6526 19.5414 94.8125 18.729L94.8129 18.7289C94.9053 18.6943 95.0634 18.6272 95.276 18.537C95.4091 18.4806 95.5634 18.4151 95.7363 18.3429C96.1731 18.1605 96.706 17.9447 97.2367 17.7578C97.7626 17.5725 98.3074 17.4079 98.7628 17.3371C98.9887 17.3019 99.2186 17.2854 99.4244 17.3133C99.6234 17.3403 99.8777 17.4204 100.04 17.6524C101.847 20.2415 103.765 22.7251 105.688 25.2145C106.799 26.6528 107.912 28.093 109.005 29.5568L109.006 29.558C111.271 32.6119 113.439 35.7323 115.285 39.1267C115.286 39.127 115.286 39.1274 115.286 39.1278L114.902 39.3365C115.149 39.7876 115.405 40.3683 115.685 41.0011C116.612 43.0988 117.791 45.7682 119.708 46.179L110.133 4.19883ZM110.133 4.19883L117.394 14.8071L116.537 15.405C115.422 14.7415 114.12 14.3845 113.009 14.6351C112.398 14.7728 111.848 15.0948 111.443 15.639C111.042 16.178 110.806 16.9036 110.756 17.8151C110.66 19.5018 111.376 20.9466 112.4 22.1234C113.421 23.297 114.771 24.231 116.013 24.9177C116.824 25.3666 117.589 25.8396 118.365 26.3197C118.889 26.6436 119.418 26.9709 119.97 27.2961M110.133 4.19883L142.595 51.3022L142.218 51.5229C141.983 51.1216 141.732 50.6329 141.471 50.1213L141.422 50.0267C141.173 49.5392 140.913 49.0294 140.639 48.5331C140.046 47.4602 139.426 46.5275 138.79 46.0496M119.97 27.2961C119.97 27.296 119.969 27.2958 119.969 27.2957L120.192 26.9196L119.97 27.2961ZM119.97 27.2961C121.38 28.13 122.953 28.5743 124.457 28.9992C124.718 29.0728 124.976 29.1458 125.232 29.2202C126.987 29.7314 128.618 30.311 129.954 31.5335M129.954 31.5335C130.794 32.3081 131.514 33.2282 132.211 34.2036C132.456 34.5468 132.701 34.9008 132.948 35.2572C133.392 35.8983 133.842 36.5473 134.307 37.1551M129.954 31.5335C129.954 31.5334 129.954 31.5333 129.954 31.5331L130.25 31.2119M129.954 31.5335C129.954 31.5337 129.955 31.534 129.955 31.5343L130.25 31.2119M134.307 37.1551C135.073 38.1622 135.584 38.9784 135.914 39.835C136.242 40.688 136.402 41.6061 136.431 42.8257L136.431 42.83C136.442 43.1714 136.462 43.6065 136.543 44.0296C136.624 44.4474 136.773 44.9037 137.079 45.2549L137.084 45.2604C137.425 45.6385 137.813 45.7528 138.122 45.825C138.165 45.8352 138.206 45.8444 138.244 45.8532C138.492 45.9097 138.643 45.944 138.79 46.0496M134.307 37.1551C134.307 37.1547 134.307 37.1543 134.306 37.1539L134.654 36.8893M134.307 37.1551L134.654 36.8893M138.79 46.0496C138.789 46.0488 138.788 46.0479 138.787 46.0471L139.049 45.6972L138.792 46.0513C138.791 46.0507 138.791 46.0501 138.79 46.0496ZM134.654 36.8893C134.194 36.2886 133.757 35.6567 133.317 35.0224C132.382 33.6709 131.438 32.3081 130.25 31.2119M134.654 36.8893C136.209 38.933 136.808 40.3066 136.868 42.8153C136.89 43.4963 136.944 44.4348 137.408 44.9678L130.25 31.2119M78.5865 125.184C78.5862 125.185 78.586 125.182 78.5865 125.177C78.587 125.181 78.5867 125.184 78.5865 125.184ZM148.042 63.0761C148.042 63.0765 148.043 63.0769 148.043 63.0773L148.441 62.8971L148.042 63.0761Z" stroke="black" stroke-width="0.874041"/>
</svg>
